<svg width="16" height="16" viewBox="0 0 16 16" fill="none" xmlns="http://www.w3.org/2000/svg">
<path d="M2.1459 2.854C2.09941 2.80751 2.06254 2.75232 2.03738 2.69158C2.01222 2.63084 1.99927 2.56574 1.99927 2.5C1.99927 2.43425 2.01222 2.36915 2.03738 2.30841C2.06254 2.24768 2.09941 2.19249 2.1459 2.146C2.19239 2.09951 2.24758 2.06263 2.30832 2.03748C2.36906 2.01232 2.43416 1.99937 2.4999 1.99937C2.56564 1.99937 2.63074 2.01232 2.69148 2.03748C2.75222 2.06263 2.80741 2.09951 2.8539 2.146L7.9999 7.293L13.1459 2.146C13.1924 2.09951 13.2476 2.06263 13.3083 2.03748C13.3691 2.01232 13.4342 1.99937 13.4999 1.99937C13.5656 1.99937 13.6307 2.01232 13.6915 2.03748C13.7522 2.06263 13.8074 2.09951 13.8539 2.146C13.9004 2.19249 13.9373 2.24768 13.9624 2.30841C13.9876 2.36915 14.0005 2.43425 14.0005 2.5C14.0005 2.56574 13.9876 2.63084 13.9624 2.69158C13.9373 2.75232 13.9004 2.80751 13.8539 2.854L8.7069 8L13.8539 13.146C13.9004 13.1925 13.9373 13.2477 13.9624 13.3084C13.9876 13.3692 14.0005 13.4343 14.0005 13.5C14.0005 13.5657 13.9876 13.6308 13.9624 13.6916C13.9373 13.7523 13.9004 13.8075 13.8539 13.854C13.8074 13.9005 13.7522 13.9374 13.6915 13.9625C13.6307 13.9877 13.5656 14.0006 13.4999 14.0006C13.4342 14.0006 13.3691 13.9877 13.3083 13.9625C13.2476 13.9374 13.1924 13.9005 13.1459 13.854L7.9999 8.707L2.8539 13.854C2.80741 13.9005 2.75222 13.9374 2.69148 13.9625C2.63074 13.9877 2.56564 14.0006 2.4999 14.0006C2.43416 14.0006 2.36906 13.9877 2.30832 13.9625C2.24758 13.9374 2.19239 13.9005 2.1459 13.854C2.09941 13.8075 2.06254 13.7523 2.03738 13.6916C2.01222 13.6308 1.99927 13.5657 1.99927 13.5C1.99927 13.4343 2.01222 13.3692 2.03738 13.3084C2.06254 13.2477 2.09941 13.1925 2.1459 13.146L7.2929 8L2.1459 2.854Z" fill="white"/>
</svg>
